<?xml version="1.0" standalone="no"?>
<!DOCTYPE svg PUBLIC "-//W3C//DTD SVG 20010904//EN"
 "http://www.w3.org/TR/2001/REC-SVG-20010904/DTD/svg10.dtd">
<svg version="1.0" xmlns="http://www.w3.org/2000/svg"
 width="200.000000pt" height="200.000000pt" viewBox="0 0 200.000000 200.000000"
 preserveAspectRatio="xMidYMid meet">
<metadata>
Created by potrace 1.14, written by Peter Selinger 2001-2017
</metadata>
<g transform="translate(0.000000,200.000000) scale(0.100000,-0.100000)"
fill="#000000" stroke="none">
<path d="M640 1381 c-190 -65 -352 -121 -362 -125 -25 -11 -28 -36 -28 -266 1
-158 4 -219 13 -232 7 -9 168 -68 375 -137 l361 -121 343 114 c189 63 355 119
370 126 14 7 29 22 32 34 8 31 7 449 -2 462 -4 6 -17 16 -30 23 -27 14 -709
242 -720 240 -4 -1 -162 -54 -352 -118z"/>
</g>
</svg>
